<?xml version="1.0" encoding="UTF-8"?>
<svg width="48px" height="113px" viewBox="0 0 48 113" version="1.1" xmlns="http://www.w3.org/2000/svg" xmlns:xlink="http://www.w3.org/1999/xlink">
    <g id="Page-1" stroke="none" stroke-width="1" fill="none" fill-rule="evenodd" fill-opacity="0.4">
        <g id="Yubico-demo-site-tablet-alt" transform="translate(-200.000000, -906.000000)" fill="#000000">
            <g id="icon-auth-choices-copy" transform="translate(133.000000, 870.000000)">
                <g id="icon-yk-vertical-white-copy" transform="translate(67.000000, 36.000000)">
                    <path d="M24.5305456,59.3027015 C31.2935785,59.3134479 36.7854425,53.8151845 36.796141,47.021488 C36.8071636,40.2281172 31.3331303,34.7119431 24.5700974,34.7011967 C17.8067404,34.6901246 12.3152005,40.1887136 12.3045021,46.9820844 C12.2934794,53.7754553 17.7675128,59.291955 24.5305456,59.3027015 L24.5305456,59.3027015 Z M24.6145121,6.95554751 C21.6562324,6.95066277 19.2542713,9.35590877 19.2494083,12.327459 C19.2445454,15.2986835 21.63905,17.7114195 24.5973298,17.7163042 C27.5552854,17.7211889 29.9572465,15.3162686 29.9621094,12.3447184 C29.9669724,9.37316819 27.5727919,6.96043225 24.6145121,6.95554751 L24.6145121,6.95554751 Z M0.129357133,2.60096458 C0.131950693,1.16778185 1.30099803,-0.00227622018 2.72745623,3.325173e-06 L45.4103275,0.0687153352 C46.8371099,0.0709948806 48.0019427,1.24528639 47.9999976,2.67814347 L47.8703195,83.5733465 C47.8680502,85.0062036 46.6990028,86.1765873 45.2725446,86.1746334 L40.0731045,86.1658409 L40.0345253,110.398711 C40.0319317,111.837755 38.8693683,113.001951 37.4370746,112.999998 L10.3395559,112.956035 C8.90693799,112.953755 7.74761651,111.785651 7.74988587,110.346607 L7.78878928,86.113737 L2.58934914,86.1055958 C1.16289094,86.1033162 -0.00226605591,84.9286991 3.3094045e-06,83.4961676 L0.129357133,2.60096458 Z" id="Fill-12"></path>
                    <polygon id="Fill-13" points="24.55616 48.1171753 26.264 43.6847063 28.8 43.6806723 24.57984 53.1721262 21.90496 53.1764706 23.12544 50.5456619 20.16 43.6940156 22.74912 43.6899816"></polygon>
                </g>
            </g>
        </g>
    </g>
</svg>
