<svg id="Layer_1" xmlns="http://www.w3.org/2000/svg" xmlns:xlink="http://www.w3.org/1999/xlink" width="306.2" height="89.1" viewBox="0 0 306.2 89.1"><style>.st0,.st1,.st2{clip-path:url(#SVGID_2_)}.st0{stroke:#004c4f;stroke-width:6.4697;stroke-miterlimit:10;fill:none}.st1,.st2{fill:#004c4f}.st2{fill:none;stroke:#004c4f;stroke-width:.6998;stroke-miterlimit:10}</style><defs><path id="SVGID_1_" d="M0 0h306.2v89.1H0z"/></defs><clipPath id="SVGID_2_"><use xlink:href="#SVGID_1_" overflow="visible"/></clipPath><path class="st0" d="M261.7 3.2c-15.6 0-29.2 8.6-36.2 21.4-7-12.8-20.6-21.4-36.2-21.4-15.6 0-29.2 8.6-36.2 21.4-7-12.8-20.6-21.4-36.2-21.4-15.6 0-29.2 8.6-36.2 21.4-7-12.8-20.6-21.4-36.2-21.4-22.8 0-41.3 18.5-41.3 41.3 0 22.8 18.5 41.3 41.3 41.3 15.6 0 29.2-8.6 36.2-21.4 7 12.8 20.6 21.4 36.2 21.4 15.6 0 29.2-8.6 36.2-21.4 7 12.8 20.6 21.4 36.2 21.4 15.6 0 29.2-8.6 36.2-21.4 7 12.8 20.6 21.4 36.2 21.4 22.8 0 41.3-18.5 41.3-41.3 0-22.8-18.5-41.3-41.3-41.3z"/><path class="st1" d="M66.5 33.2c-.4 0-.7-.3-.7-.8v-7.7c0-.9-.7-1.5-1.5-1.5H57c-.4 0-.7-.3-.7-.8 0-.4.3-.8.7-.8h7.3c1.6 0 2.9 1.4 2.9 3.1v7.7c0 .5-.3.8-.7.8M26.2 21.6h7.3c.4 0 .7.3.7.8 0 .4-.3.8-.7.8h-7.3c-.8 0-1.5.7-1.5 1.5v7.7c0 .4-.3.8-.7.8-.4 0-.7-.3-.7-.8v-7.7c-.1-1.7 1.3-3.1 2.9-3.1M56.9 66.5h7.3c.8 0 1.5-.7 1.5-1.5v-7.7c0-.4.3-.8.7-.8.4 0 .7.3.7.8V65c0 1.7-1.3 3.1-2.9 3.1h-7.3c-.4 0-.7-.3-.7-.8s.3-.8.7-.8M24 56.4c.4 0 .7.3.7.8v7.7c0 .9.7 1.5 1.5 1.5h7.3c.4 0 .7.3.7.8s-.3.8-.7.8h-7.3c-1.6 0-2.9-1.4-2.9-3.1v-7.7c-.1-.5.3-.8.7-.8"/><path class="st1" d="M36.1 43.6c0-.4 0-.7-.1-1.1h18.5c-.1.4-.1.7-.1 1.1 0 .2 0 .5-.2.6-.3.2-.6.3-.9.3-.4 0-.7.3-.7.8 0 1.1-.2 2.3-.6 3.3-.3.7-1.5 1.6-3.1 2.5-.3.1-.5.3-.7.6-.7 1-1.8 1.6-2.9 1.7-1.2-.1-2.2-.7-2.9-1.7-.2-.2-.4-.4-.7-.6-1.6-.8-2.7-1.8-3.1-2.5-.4-1-.6-2.2-.6-3.3 0-.4-.3-.8-.7-.8-.3 0-.6-.1-.9-.3-.3-.1-.3-.4-.3-.6zm3.6 8c.5.3.9.6 1.3.8.1 0 .2.1.2.2 1 1.3 2.5 2.2 4.1 2.3 1.6-.1 3.1-.9 4.1-2.2l.2-.2c.4-.2.8-.5 1.3-.8l.3 2.4c-.2.6-1.2 3.1-5.9 3.1s-5.7-2.6-5.8-3.1l.2-2.5zm-9.9 7.9c0-1 .6-1.9 1.6-2.2l6.8-2.2c.6 1.3 2.3 3.7 7 3.7 4.8 0 6.5-2.4 7-3.7l6.8 2.2c.9.3 1.6 1.2 1.6 2.2v2.4H29.8v-2.4m25.3-18.8c0 .1-.1.2-.1.2H35.4c0-.1-.1-.1-.1-.2-.5-1-.4-1.7-.1-2 .3-.2.6-.3.9-.1H36.7c.1 0 .1 0 .2-.1.3-.2.4-.5.3-.9.2-1.6 1-5.1 2.6-6.1.6.9 2.1 2.3 5.4 2.3 3.3 0 4.8-1.5 5.5-2.3 1.7 1.1 2.4 4.9 2.6 6.4V38.2s0 .1.1.1c0 0 .1 0 .1.1l.1.1h.6c.3-.2.7-.1.9.1.4.4.5 1.1 0 2.1m-1.7-11.2c.8 1.6 1.1 3.5.7 5.3-.5-1.7-1.3-3.6-2.7-4.5-.6-.4-1.5-.3-1.9.4-.4.6-1.6 1.7-4.3 1.7-2.7 0-3.8-1.1-4.3-1.7-.4-.6-1.3-.8-1.9-.4-1.3.9-2.1 2.7-2.6 4.3-.4-1.7-.1-3.6.7-5.1 1.3-2.2 4-3.3 8.2-3.3 4.1 0 6.9 1.2 8.1 3.3M24 40.9c-.4 0-.7.3-.7.8 0 .4.3.8.7.8h10.5c.1.3.2.7.2 1.1-.1 1.2.7 2.2 1.9 2.4.1 1.1.3 2.3.8 3.3.3.5.6.9 1 1.3l-.4 2.9-7 2.3c-1.5.5-2.6 2-2.6 3.7v2.4c0 .9.7 1.5 1.5 1.5h30.8c.8 0 1.5-.7 1.5-1.5v-2.4c0-1.7-1-3.2-2.6-3.7l-7-2.3-.3-2.9c.4-.4.8-.8 1-1.3.5-1 .7-2.2.8-3.3.5-.1.9-.3 1.3-.7.4-.5.6-1.1.6-1.8 0-.4.1-.7.2-1.1h10.5c.4 0 .7-.3.7-.8 0-.4-.3-.8-.7-.8h-9.8c.5-1.1.4-2.3-.3-3.3-.3-.4-.7-.6-1.2-.7.6-1.8 1.2-5.3-.3-8.1s-4.7-4.2-9.5-4.2-8 1.4-9.5 4.2c-1.6 2.8-.9 6.3-.3 8.1-.5.1-.9.3-1.3.7-.7.9-.9 2.2-.3 3.3H24"/><path class="st2" d="M96.5 22.9h7.2v7.2h-7.2zM108.6 22.9h7.2v7.2h-7.2zM120.6 22.9h7.2v7.2h-7.2zM96.5 34.9h7.2v7.2h-7.2zM108.6 34.9h7.2v7.2h-7.2zM120.6 34.9h7.2v7.2h-7.2zM96.5 46.9h7.2v7.2h-7.2zM108.6 46.9h7.2v7.2h-7.2z"/><path class="st1" d="M139.8 58.9c0-1.3-1.1-2.4-2.4-2.4s-2.4 1.1-2.4 2.4v-2.5c0-1.3-1.1-2.4-2.4-2.4-1.3 0-2.4 1.1-2.4 2.4V54c0-1.3-1.1-2.4-2.4-2.4-1.3 0-2.4 1.1-2.4 2.4v-7.2c0-1.3-1.1-2.4-2.4-2.4-1.3 0-2.4 1.1-2.4 2.4v13.4l-3.1-3.1c-.9-.9-2.5-.9-3.4 0-.9.9-.9 2.5 0 3.4l6.5 7.9c0 1.3 1.1 2.4 2.4 2.4h14.4c1.3 0 2.4-1.1 2.4-2.4v-9.5z"/><path transform="rotate(-39.583 208.63 34.986)" class="st1" d="M205.3 34.4h6.8v1.2h-6.8z"/><path transform="rotate(-39.583 206.925 32.884)" class="st1" d="M203.5 32.3h6.8v1.2h-6.8z"/><path transform="rotate(-39.574 205.163 30.782)" class="st1" d="M201.8 30.2h6.8v1.2h-6.8z"/><path class="st1" d="M216.3 33.2l-8-9.7-9.6 7.9-2.2-2.7-27.8 23c-1.7 1.4-2 4-.5 5.7l7.2 8.8c1.1 1.3 2.9 1.8 4.6 1.2.4-.2.8-.4 1.2-.7l27.8-23-2.2-2.7 9.5-7.8zm-8.1-7.9l6.4 7.8-8.6 7.1-6.4-7.8 8.6-7.1zm-27.8 40.5c-.2.2-.5.4-.8.5-1.1.4-2.4.1-3.2-.8l-7.2-8.8c-1-1.2-.8-3 .4-4l26.8-22.2 10.8 13.1-26.8 22.2z"/><path class="st1" d="M180.1 47.7c-2.2 1.8-2.5 5.1-.7 7.3s5.1 2.5 7.3.7c1.9-1.6 2.4-4.3 1.3-6.4l3.1-2.5 2 2.4 1.5-1.3-2-2.4 1.5-1.2 2 2.4 1.5-1.3-2-2.4 1.5-1.2-1.3-1.5-9.1 7.5a5.02 5.02 0 0 0-6.6-.1m5.3 6.4c-1.4 1.1-3.3.9-4.5-.4-1.1-1.4-.9-3.3.4-4.5 1.4-1.1 3.3-.9 4.5.4 1.1 1.4.9 3.4-.4 4.5M254.1 22.8c2.9-2.1 6.5-3 10-2.5 4.6.6 8.5 3 11.5 7.2 1.1 1.5 1.9 3.4 2.5 6 .6 2.6 1.8 5.2 3.4 7.6.2.3.7.4 1 .2.3-.2.4-.7.2-1.1-1.5-2.3-2.6-4.7-3.2-7.2-.7-2.8-1.6-4.8-2.8-6.5-3.3-4.5-7.5-7.1-12.5-7.8-3.9-.5-7.8.5-11 2.8-3.1 2.2-5.3 5.2-6.6 8.8-1.3 3.5-1.6 7.5-.8 11.5.5 2.5.5 4.7.1 6.5-.1.4.2.8.5.9h.2c.3 0 .6-.2.7-.6.4-2 .4-4.4-.1-7.2-.7-3.8-.5-7.5.7-10.7 1.3-3.2 3.3-5.8 6.2-7.9"/><path class="st1" d="M282.6 46.2c-3.9-3.4-6.3-7.7-7.5-13.6v-.1c-2.3-5.8-6-8.7-11.4-9-4.1-.2-8.1 1.5-10.8 4.6-3 3.4-4.1 7.6-3.3 12.4v.1c1.7 6.2.9 10.1 0 13.5-.1.4.1.8.5.9h.2c.3 0 .6-.2.7-.6.9-3.5 1.8-7.7 0-14.3-.7-4.4.2-8 2.9-11.1 2.4-2.8 6-4.4 9.7-4.2 4.8.3 8.1 2.9 10.2 8 1.3 6.2 3.8 10.8 8 14.4.3.3.8.2 1-.1.1-.1.1-.6-.2-.9"/><path class="st1" d="M272.6 37.5c-1.4-4.7-3.7-7.6-6.9-8.8-3.7-1.4-8 0-10.3 3.5l-.1.2c-1.5 2.2-1.9 5.1-1.2 8 .9 3.7.9 7.9 0 12.8l-2.1 5.7c-.1.4 0 .8.4 1 .1 0 .2.1.3.1.3 0 .6-.2.7-.5l2.2-5.7v-.1c1-5.1 1-9.5 0-13.5-.6-2.5-.2-4.9 1-6.8l.1-.2c2-2.9 5.6-4.1 8.7-3 2.8 1.1 4.8 3.6 6 7.8 1.2 5.6 4.3 10.6 9.4 14.5.3.2.8.2 1-.2.2-.3.2-.8-.2-1.1-4.9-3.8-7.9-8.4-9-13.7"/><path class="st1" d="M279.4 54.4c-5.9-3.4-10.2-11.6-12-18.3-.7-2.6-3-4.2-5.5-3.9-1.5.2-2.8 1.1-3.7 2.4-.8 1.3-1.1 2.9-.6 4.4 3.2 11.6 9.3 20.7 16.4 24.3.1.1.2.1.3.1.3 0 .5-.2.6-.4.2-.4 0-.8-.3-1-6.7-3.4-12.6-12.1-15.7-23.4-.3-1.1-.1-2.2.5-3.2s1.6-1.6 2.6-1.7c1.8-.2 3.5 1 4 2.8 1.8 7 6.4 15.6 12.7 19.2.3.2.8.1 1-.3.2-.4.1-.8-.3-1"/><path class="st1" d="M278.1 59c-7.6-4-12.1-10.8-13.9-20.6-.1-.4-.4-.7-.8-.6-.4.1-.6.5-.6.9 1.9 10.2 6.8 17.4 14.7 21.6.1.1.2.1.3.1.3 0 .5-.2.6-.4.2-.3.1-.8-.3-1M271 65.4c-6.1-3.6-9.8-7.8-11.3-13-.1-.3-.4-.6-.8-.5-.3 0-.6.3-.6.7-.4 3.5-1.2 7.4-3.7 9.5-.3.3-.4.7-.1 1.1.2.3.7.4 1 .1 2.2-1.9 3.2-4.8 3.8-7.7 2 4.4 5.6 8.1 11 11.2.1.1.2.1.3.1.3 0 .5-.1.6-.4.3-.4.1-.9-.2-1.1"/><path class="st1" d="M265.9 67.8c-2.8-1.4-4.2-2.8-4.5-4.6-.1-.3-.3-.6-.6-.6s-.6.2-.7.5c-.5 1.3-.9 2.4-2.9 2.8-.4.1-.6.5-.6.9.1.4.5.7.8.6 1.8-.4 2.7-1.2 3.3-2.1 1 1.9 3 3 4.7 3.9.1 0 .2.1.3.1.3 0 .5-.2.7-.4 0-.5-.2-1-.5-1.1"/></svg>