<svg id="Layer_1" xmlns="http://www.w3.org/2000/svg" xmlns:xlink="http://www.w3.org/1999/xlink" width="122" height="122" viewBox="0 0 122 122"><style>.st0{clip-path:url(#SVGID_2_);fill:url(#SVGID_3_)}.st1{clip-path:url(#SVGID_5_);fill:none;stroke:#004b4e;stroke-width:7.1433;stroke-miterlimit:10}.st2,.st3{clip-path:url(#SVGID_7_);fill:#fdbc3d}.st3{clip-path:url(#SVGID_9_)}</style><defs><path id="SVGID_1_" d="M3.6 61c0 31.7 25.7 57.4 57.4 57.4s57.4-25.7 57.4-57.4S92.7 3.6 61 3.6 3.6 29.3 3.6 61"/></defs><clipPath id="SVGID_2_"><use xlink:href="#SVGID_1_" overflow="visible"/></clipPath><radialGradient id="SVGID_3_" cx="-612.893" cy="290.342" r=".763" gradientTransform="translate(46160.832 -21777.596) scale(75.2168)" gradientUnits="userSpaceOnUse"><stop offset="0" stop-color="#fff"/><stop offset="1" stop-color="#e6e7e8"/></radialGradient><path class="st0" d="M3.6 3.6h114.8v114.8H3.6z"/><g><defs><path id="SVGID_4_" d="M0 0h122v122H0z"/></defs><clipPath id="SVGID_5_"><use xlink:href="#SVGID_4_" overflow="visible"/></clipPath><circle class="st1" cx="61" cy="61" r="57.4"/><g><defs><path id="SVGID_6_" d="M0 0h122v122H0z"/></defs><clipPath id="SVGID_7_"><use xlink:href="#SVGID_6_" overflow="visible"/></clipPath><path class="st2" d="M62.4 27.8c-4.4 0-7.9 3.5-7.9 7.9s3.5 7.9 7.9 7.9 7.9-3.5 7.9-7.9-3.6-7.9-7.9-7.9"/></g><g><defs><path id="SVGID_8_" d="M0 0h122v122H0z"/></defs><clipPath id="SVGID_9_"><use xlink:href="#SVGID_8_" overflow="visible"/></clipPath><path class="st3" d="M41.3 49.8V60.1h14.1v34.7h5.1V75.1h3.7v19.7h5.1v-45h-8.6z"/></g></g></svg>